<svg width="192" height="192" viewBox="0 0 192 192" fill="none" xmlns="http://www.w3.org/2000/svg">
  <rect width="192" height="192" rx="42" fill="#07120D"/>
  <rect x="22" y="22" width="148" height="148" rx="32" fill="#0E2418" stroke="#D4A017" stroke-width="6"/>
  <circle cx="96" cy="96" r="48" fill="#16A34A"/>
  <path d="M68 130V62h19v51h31v17H68Z" fill="#F6FFF8"/>
  <path d="M124 132c-10 0-19-3-27-9l9-13c6 4 12 6 18 6 5 0 8-2 8-5 0-4-4-5-13-8-12-4-20-9-20-21 0-13 10-22 26-22 9 0 17 3 24 8l-8 13c-6-3-11-5-16-5s-7 2-7 5c0 4 4 5 13 8 13 4 21 9 21 21 0 14-11 22-28 22Z" fill="#F6FFF8"/>
  <path d="M58 148h80" stroke="#D4A017" stroke-width="8" stroke-linecap="round"/>
</svg>
