<svg width="512" height="512" viewBox="0 0 512 512" fill="none" xmlns="http://www.w3.org/2000/svg">
  <rect width="512" height="512" rx="112" fill="#07120D"/>
  <rect x="58" y="58" width="396" height="396" rx="86" fill="#0E2418" stroke="#D4A017" stroke-width="16"/>
  <circle cx="256" cy="256" r="128" fill="#16A34A"/>
  <path d="M180 346V165h50v136h84v45H180Z" fill="#F6FFF8"/>
  <path d="M329 352c-28 0-51-8-72-25l24-34c16 11 32 17 49 17 14 0 21-5 21-14 0-10-11-14-35-21-33-10-54-24-54-57 0-36 28-59 69-59 25 0 47 8 65 22l-22 34c-15-9-30-14-44-14-12 0-19 5-19 13 0 10 11 13 35 21 35 11 57 25 57 58 0 37-31 59-74 59Z" fill="#F6FFF8"/>
  <path d="M154 394h214" stroke="#D4A017" stroke-width="22" stroke-linecap="round"/>
</svg>
